<svg width="120" height="151" viewBox="0 0 120 151" fill="none" xmlns="http://www.w3.org/2000/svg">
<path fill-rule="evenodd" clip-rule="evenodd" d="M40.6122 112.608C38.256 109.847 35.8139 107.216 33.1984 104.391C18.6302 88.7115 -1.01723 67.5323 0.0410046 42.3632C0.861743 22.6482 15.4514 9.708 34.3442 3.79897C51.071 -1.26632 68.9294 -1.26632 85.6574 3.79897C104.55 9.70873 119.14 22.6493 119.961 42.3851C120.998 67.5554 101.35 88.7134 86.8032 104.413C84.1663 107.239 81.7456 109.849 79.3681 112.63L77.3585 114.981V115.176H42.7747L40.6133 112.673L40.6122 112.608ZM64.7559 14.6902V97.7276C79.8858 65.9799 95.6871 31.8831 76.6873 16.3953V16.3938C72.7642 15.4934 68.7736 14.9246 64.7559 14.6902ZM55.9798 98.2874V14.6463C51.9434 14.8464 47.9315 15.381 43.9839 16.2414C24.5312 31.7271 40.6336 66.2577 55.9798 98.1994V98.2874ZM93.2638 23.1861C99.8999 41.8634 89.6542 67.5495 77.8302 92.7626C90.4106 79.1748 106.21 61.3167 105.454 42.9402C105.109 34.4864 100.375 27.8431 93.2638 23.1839V23.1861ZM43.1387 93.82C31.0126 68.0896 20.3345 41.7766 27.3601 22.7763C19.9249 27.4998 14.9102 34.2288 14.5421 42.9427C13.7643 61.8143 30.4083 80.1019 43.1387 93.8189V93.82Z" fill="white"/>
<path fill-rule="evenodd" clip-rule="evenodd" d="M77.3389 118.389L75.6745 131.87V143.106C75.6745 147.42 71.5035 151 66.4015 151H53.7569C48.6564 151 44.484 147.441 44.484 143.106V132.323L42.7766 118.455H49.8667L51.0341 127.858H69.0817L70.2491 118.455L77.3389 118.389Z" fill="white"/>
</svg>
