<svg width="120" height="151" fill="none" xmlns="http://www.w3.org/2000/svg"><path fill-rule="evenodd" clip-rule="evenodd" d="M40.612 112.608c-2.356-2.761-4.798-5.392-7.414-8.217C18.63 88.711-1.017 67.532.041 42.363.861 22.648 15.451 9.708 34.344 3.8a88.536 88.536 0 0 1 51.313 0c18.893 5.91 33.483 18.85 34.304 38.586 1.037 25.17-18.611 46.328-33.158 62.028-2.637 2.826-5.057 5.436-7.435 8.217l-2.01 2.351v.195H42.776l-2.162-2.503v-.065zM64.756 14.69v83.038c15.13-31.748 30.931-65.845 11.931-81.333v-.001a72.107 72.107 0 0 0-11.931-1.704zM55.98 98.287v-83.64c-4.037.2-8.048.734-11.996 1.594C24.53 31.727 40.634 66.258 55.98 98.2v.088zm37.284-75.1c6.636 18.676-3.61 44.362-15.434 69.576 12.58-13.588 28.38-31.446 27.624-49.823-.345-8.454-5.079-15.097-12.19-19.756v.002zM43.139 93.82C31.013 68.09 20.334 41.777 27.36 22.776 19.925 27.5 14.91 34.23 14.542 42.943c-.778 18.871 15.866 37.159 28.597 50.876v.001zm34.2 24.569l-1.665 13.481v11.236c0 4.314-4.17 7.894-9.273 7.894H53.758c-5.1 0-9.273-3.559-9.273-7.894v-10.783l-1.707-13.868h7.09l1.167 9.403h18.048l1.167-9.403 7.09-.066z" fill="#fff"/></svg>